<svg width="331.23" height="104.65" version="1.1" viewBox="0 0 87.639 27.689"
    xmlns="http://www.w3.org/2000/svg">
    <g transform="translate(-61.181 -167)">
        <circle cx="72.207" cy="178.03" r="5.1899" fill="#b71c1c"/>
        <path d="m72.207 167c-6.0596 1e-5 -11.027 4.9669-11.027 11.026v14.083a2.5446 2.5446 0 0 0 2.5446 2.5446 2.5446 2.5446 0 0 0 2.5446-2.5446 2.5446 2.5446 0 0 0 0-0.0124v-14.071c1.7e-4 -3.3091 2.6284-5.9372 5.9376-5.9372 3.3093 0 5.9369 2.6283 5.9369 5.9376 0 3.3093-2.6276 5.9371-5.9369 5.9371h-3.39e-4c-1.4053 0-2.5446 1.1392-2.5446 2.5446s1.1393 2.5446 2.5446 2.5446h3.39e-4c0.02016-4e-5 0.04032-3.4e-4 0.06047-8.5e-4 6.0322-0.033 10.966-4.986 10.966-11.025 0-6.0597-4.9664-11.027-11.026-11.027z" color="#000000" color-rendering="auto" dominant-baseline="auto" fill="#f44336" image-rendering="auto" shape-rendering="auto" solid-color="#000000" stop-color="#000000" style="font-feature-settings:normal;font-variant-alternates:normal;font-variant-caps:normal;font-variant-east-asian:normal;font-variant-ligatures:normal;font-variant-numeric:normal;font-variant-position:normal;font-variation-settings:normal;inline-size:0;isolation:auto;mix-blend-mode:normal;shape-margin:0;shape-padding:0;text-decoration-color:#000000;text-decoration-line:none;text-decoration-style:solid;text-indent:0;text-orientation:mixed;text-transform:none;white-space:normal"/>
        <path transform="matrix(.26458 0 0 .26458 61.181 134.67)" d="m91.762 179.99c-1.9009 0-3.3694 0.51783-4.4062 1.5547-1.0369 1.0369-1.5566 2.5498-1.5566 4.5371v34.67c0 1.9873 0.51978 3.5002 1.5566 4.5371 1.0369 1.0369 2.5053 1.5547 4.4062 1.5547 1.9441 0 3.4126-0.51783 4.4062-1.5547 1.0369-1.0369 1.5547-2.5498 1.5547-4.5371v-12.766h18.859v12.766c0 1.9873 0.49658 3.5002 1.4902 4.5371 1.0369 1.0369 2.5266 1.5547 4.4707 1.5547 1.9009 0 3.3481-0.51783 4.3418-1.5547 1.0369-1.0369 1.5547-2.5498 1.5547-4.5371v-34.67c0-1.9873-0.51782-3.5002-1.5547-4.5371-0.99366-1.0369-2.4409-1.5547-4.3418-1.5547s-3.3694 0.51783-4.4062 1.5547-1.5547 2.5498-1.5547 4.5371v12.119h-18.859v-12.119c0-1.9873-0.51783-3.5002-1.5547-4.5371-1.0369-1.0369-2.5053-1.5547-4.4062-1.5547zm47.891 0c-1.7281 0-3.0691 0.45408-4.0195 1.3613-0.90725 0.90725-1.4251 1.9874-1.5547 3.2402-0.0864 1.2529 0.23822 2.3967 0.97266 3.4336l12.441 18.016v14.646c0 1.9873 0.51978 3.5215 1.5566 4.6016 1.0369 1.0369 2.5053 1.5547 4.4062 1.5547 3.9746 0 5.9609-2.052 5.9609-6.1562v-14.646l12.379-17.885c0.86405-1.2961 1.2524-2.5714 1.166-3.8242-0.0432-1.2529-0.51853-2.2905-1.4258-3.1113-0.90726-0.82085-2.1825-1.2305-3.8242-1.2305-1.2961 0-2.4187 0.30337-3.3691 0.9082-0.95046 0.56164-1.8799 1.5103-2.7871 2.8496l-7.9062 11.666-7.9062-11.6c-0.86405-1.3393-1.7915-2.3112-2.7852-2.916-0.99366-0.60483-2.095-0.9082-3.3047-0.9082zm43.611 0c-1.5121 0-2.7642 0.40962-3.7578 1.2305s-1.5772 1.8584-1.75 3.1113c-0.12961 1.2529 0.30322 2.5494 1.2969 3.8887l11.34 14.969-11.729 15.488c-0.99366 1.2961-1.4265 2.5926-1.2969 3.8887 0.12961 1.2529 0.69189 2.2905 1.6855 3.1113 1.0369 0.77765 2.3102 1.166 3.8223 1.166 1.2529 0 2.3542-0.28017 3.3047-0.8418 0.95045-0.60484 1.9224-1.5999 2.916-2.9824l8.0371-11.146 8.0996 11.146c0.99366 1.3825 1.9443 2.3776 2.8516 2.9824 0.95046 0.56163 2.0518 0.8418 3.3047 0.8418 1.5553 0 2.8306-0.38837 3.8242-1.166 0.99366-0.82085 1.554-1.8584 1.6836-3.1113 0.17281-1.2961-0.25806-2.5926-1.2949-3.8887l-11.664-15.488 11.34-14.969c0.99366-1.3393 1.4265-2.6358 1.2969-3.8887-0.12961-1.2961-0.69189-2.3337-1.6856-3.1113-0.99366-0.82085-2.2689-1.2305-3.8242-1.2305-1.2529 0-2.3542 0.30337-3.3047 0.9082-0.95046 0.56164-1.9011 1.5335-2.8516 2.916l-7.7754 10.756-7.7129-10.756c-0.95045-1.3393-1.9011-2.3112-2.8516-2.916-0.95046-0.60483-2.0518-0.9082-3.3047-0.9082zm46.594 0.51758c-1.9009 0-3.3694 0.51978-4.4062 1.5566s-1.5547 2.5266-1.5547 4.4707v33.699c0 1.9009 0.51783 3.3906 1.5547 4.4707 1.0369 1.0369 2.5285 1.5547 4.4727 1.5547h21.709c1.6417 0 2.8938-0.43087 3.7578-1.2949 0.90726-0.86405 1.3613-2.0968 1.3613-3.6953 0-1.5553-0.45407-2.7649-1.3613-3.6289-0.86405-0.86405-2.1161-1.2949-3.7578-1.2949h-15.812v-29.811c0-1.9441-0.51782-3.4338-1.5547-4.4707-1.0369-1.0369-2.5073-1.5566-4.4082-1.5566zm38.17 0.0664c-4.1474 0-6.2207 2.052-6.2207 6.1563v33.373c0 4.1042 2.0733 6.1562 6.2207 6.1562h21.969c3.1106 0 4.666-1.5342 4.666-4.6016s-1.5554-4.5996-4.666-4.5996h-16.785v-9.3965h15.359c3.1106 0 4.666-1.5342 4.666-4.6016s-1.5554-4.6016-4.666-4.6016h-15.359v-8.6836h16.785c3.1106 0 4.666-1.5554 4.666-4.666 0-3.0242-1.5554-4.5352-4.666-4.5352z" fill="#fff" stroke-width="3.78"/>
        <g>
            <circle cx="143.34" cy="183.66" r="2.4898" fill="#d32f2f"/>
            <circle cx="146.33" cy="178.48" r="2.4898" fill="#b71c1c"/>
            <circle cx="140.35" cy="178.48" r="2.4898" fill="#f44336"/>
        </g>
    </g>
</svg>
